<svg width="20" height="18" viewBox="0 0 20 18" fill="none" xmlns="http://www.w3.org/2000/svg">
<path d="M17.3664 1.63477L14.0914 2.21977L16.3747 4.87476L18.0164 4.57476L17.3664 1.63477ZM11.6414 2.65477L9.9997 2.94727L12.2914 5.59476L13.9247 5.30227L11.6414 2.65477ZM7.55803 3.37477L5.91637 3.68227L8.20803 6.32976L9.84136 6.03726L7.55803 3.37477ZM3.46637 4.12477L2.6497 4.26727C2.21669 4.34513 1.8357 4.57447 1.5904 4.90492C1.3451 5.23537 1.25553 5.63993 1.34137 6.02976L1.66637 7.49976L5.7497 6.77226L3.46637 4.12477ZM1.66637 7.49976V14.9998C1.66637 15.8323 2.41637 16.4998 3.33303 16.4998H16.6664C17.5914 16.4998 18.333 15.8323 18.333 14.9998V7.49976H1.66637Z" fill="white"/>
</svg>
