<svg width="20" height="20" viewBox="0 0 20 20" fill="none" xmlns="http://www.w3.org/2000/svg">
<path d="M10.165 14.2545C11.2332 14.2545 12.1413 13.8808 12.8893 13.1334C13.6373 12.3859 14.011 11.4778 14.0104 10.4091C14.0099 9.34033 13.6362 8.43252 12.8893 7.68565C12.1424 6.93878 11.2343 6.56477 10.165 6.56363C9.09568 6.56249 8.18787 6.9365 7.44157 7.68565C6.69527 8.4348 6.32126 9.34261 6.31955 10.4091C6.31784 11.4756 6.69185 12.3836 7.44157 13.1334C8.19129 13.8831 9.0991 14.2568 10.165 14.2545ZM10.165 12.7164C9.52409 12.7164 8.97946 12.4919 8.53111 12.043C8.08276 11.594 7.8583 11.0494 7.85773 10.4091C7.85716 9.76874 8.08162 9.22411 8.53111 8.77519C8.9806 8.32627 9.52523 8.10181 10.165 8.10181C10.8048 8.10181 11.3497 8.32627 11.7997 8.77519C12.2498 9.22411 12.474 9.76874 12.4723 10.4091C12.4706 11.0494 12.2464 11.5943 11.7997 12.0438C11.3531 12.4933 10.8082 12.7175 10.165 12.7164ZM10.165 16.8182C8.25652 16.8182 6.51524 16.3054 4.94117 15.28C3.3671 14.2545 2.12459 12.9015 1.21365 11.2209C1.14244 11.0927 1.08917 10.9611 1.05385 10.8261C1.01853 10.6911 1.00058 10.5521 1.00001 10.4091C0.999443 10.2661 1.01739 10.1271 1.05385 9.99206C1.09031 9.85705 1.14358 9.72545 1.21365 9.59726C2.12516 7.91666 3.36796 6.56363 4.94203 5.53818C6.5161 4.51273 8.25709 4 10.165 4C12.0729 4 13.8142 4.51273 15.3888 5.53818C16.9635 6.56363 18.206 7.91666 19.1164 9.59726C19.1876 9.72545 19.2411 9.85733 19.277 9.99292C19.3129 10.1285 19.3306 10.2672 19.33 10.4091C19.3294 10.5509 19.3118 10.6899 19.277 10.8261C19.2423 10.9623 19.1887 11.0939 19.1164 11.2209C18.2048 12.9015 16.9623 14.2545 15.3888 15.28C13.8153 16.3054 12.0741 16.8182 10.165 16.8182Z" fill="#9D9EA1"/>
</svg>
