<svg width="56" height="56" viewBox="0 0 56 56" fill="none" xmlns="http://www.w3.org/2000/svg">
<path d="M23.0599 37.9552V17.3302L36.8099 27.6427M27.6432 4.72607C24.6338 4.72607 21.6538 5.31883 18.8734 6.4705C16.093 7.62217 13.5667 9.3102 11.4387 11.4382C7.14099 15.7359 4.72656 21.5649 4.72656 27.6427C4.72656 33.7206 7.14099 39.5496 11.4387 43.8473C13.5667 45.9753 16.093 47.6633 18.8734 48.815C21.6538 49.9667 24.6338 50.5594 27.6432 50.5594C33.7211 50.5594 39.5501 48.145 43.8478 43.8473C48.1455 39.5496 50.5599 33.7206 50.5599 27.6427C50.5599 24.6333 49.9671 21.6533 48.8155 18.8729C47.6638 16.0925 45.9758 13.5662 43.8478 11.4382C41.7198 9.3102 39.1934 7.62217 36.4131 6.4705C33.6327 5.31883 30.6527 4.72607 27.6432 4.72607Z" fill="white"/>
</svg>
